<?xml version="1.0" encoding="utf-8"?>
<svg viewBox="50.311 99.377 254.898 248.613" width="254.898" height="248.613"
  xmlns="http://www.w3.org/2000/svg">
  <path d="M 177.76 99.377 C 107.387 99.377 50.311 156.442 50.311 226.826 C 50.311 283.137 86.825 330.909 137.475 347.764 C 143.837 348.943 145.898 344.992 145.898 341.636 L 145.898 317.909 C 110.446 325.62 103.064 302.87 103.064 302.87 C 97.265 288.139 88.907 284.22 88.907 284.22 C 77.341 276.308 89.788 276.478 89.788 276.478 C 102.586 277.37 109.32 289.616 109.32 289.616 C 120.684 309.094 139.132 303.465 146.407 300.205 C 147.544 291.973 150.847 286.344 154.5 283.169 C 126.196 279.93 96.437 269.001 96.437 220.177 C 96.437 206.253 101.418 194.889 109.564 185.968 C 108.247 182.75 103.882 169.782 110.807 152.236 C 110.807 152.236 121.512 148.817 145.866 165.3 C 156.03 162.475 166.927 161.062 177.76 161.009 C 188.593 161.062 199.501 162.475 209.686 165.3 C 234.018 148.817 244.702 152.236 244.702 152.236 C 251.638 169.792 247.273 182.76 245.956 185.968 C 254.134 194.889 259.072 206.264 259.072 220.177 C 259.072 269.128 229.26 279.908 200.881 283.063 C 205.448 287.014 209.622 294.767 209.622 306.662 L 209.622 341.636 C 209.622 345.024 211.661 349.007 218.129 347.754 C 268.737 330.877 305.209 283.116 305.209 226.826 C 305.209 156.442 248.144 99.377 177.76 99.377 Z" style="fill: rgb(255, 255, 255);" transform="matrix(0.9999999999999999, 0, 0, 0.9999999999999999, -1.7763568394002505e-15, 0)"/>
</svg>