<?xml version="1.0" encoding="utf-8"?>
<svg viewBox="109.137 164.608 133.157 133.157" width="133.157" height="133.157"
  xmlns="http://www.w3.org/2000/svg">
  <path d="M 214.553 164.608 L 136.878 164.608 C 121.559 164.608 109.137 177.031 109.137 192.349 L 109.137 270.024 C 109.137 285.343 121.559 297.765 136.878 297.765 L 214.553 297.765 C 229.877 297.765 242.294 285.343 242.294 270.024 L 242.294 192.349 C 242.294 177.031 229.877 164.608 214.553 164.608 Z M 153.523 270.024 L 136.878 270.024 L 136.878 208.994 L 153.523 208.994 L 153.523 270.024 Z M 145.2 201.959 C 139.841 201.959 135.491 197.576 135.491 192.172 C 135.491 186.768 139.841 182.385 145.2 182.385 C 150.56 182.385 154.91 186.768 154.91 192.172 C 154.91 197.576 150.565 201.959 145.2 201.959 Z M 220.101 270.024 L 203.457 270.024 L 203.457 238.932 C 203.457 220.245 181.264 221.66 181.264 238.932 L 181.264 270.024 L 164.619 270.024 L 164.619 208.994 L 181.264 208.994 L 181.264 218.786 C 189.009 204.439 220.101 203.379 220.101 232.524 L 220.101 270.024 Z" style="fill: rgb(255, 255, 255);" transform="matrix(0.9999999999999999, 0, 0, 0.9999999999999999, -1.7763568394002505e-15, 0)"/>
</svg>