<?xml version="1.0" encoding="utf-8"?>
<svg viewBox="103.925 43.636 247.148 200.849" width="247.148" height="200.849"
  xmlns="http://www.w3.org/2000/svg">
  <path d="M 351.073 67.414 C 341.98 71.451 332.208 74.169 321.951 75.395 C 332.424 69.123 340.467 59.186 344.246 47.343 C 334.453 53.151 323.599 57.373 312.045 59.649 C 302.807 49.794 289.616 43.636 275.034 43.636 C 242.297 43.636 218.241 74.179 225.635 105.887 C 183.507 103.775 146.146 83.592 121.133 52.914 C 107.848 75.704 114.243 105.516 136.816 120.612 C 128.516 120.345 120.69 118.069 113.862 114.269 C 113.306 137.758 130.143 159.734 154.529 164.625 C 147.392 166.561 139.576 167.015 131.626 165.491 C 138.073 185.633 156.794 200.287 178.996 200.699 C 157.68 217.412 130.823 224.878 103.925 221.706 C 126.364 236.093 153.025 244.485 181.653 244.485 C 275.796 244.485 328.985 164.976 325.772 93.663 C 335.678 86.506 344.277 77.578 351.073 67.414 Z" style="fill: rgb(255, 255, 255);"/>
</svg>